<?xml version="1.0" encoding="UTF-8" standalone="no"?><!DOCTYPE svg PUBLIC "-//W3C//DTD SVG 1.1//EN" "http://www.w3.org/Graphics/SVG/1.1/DTD/svg11.dtd"><svg width="100%" height="100%" viewBox="0 0 441 338" version="1.1" xmlns="http://www.w3.org/2000/svg" xmlns:xlink="http://www.w3.org/1999/xlink" xml:space="preserve" xmlns:serif="http://www.serif.com/" style="fill-rule:evenodd;clip-rule:evenodd;stroke-linejoin:round;stroke-miterlimit:10;"><g><path d="M6.8,195.369l0.371,0.372l1.674,1.678l0.735,0.737l1.68,1.684l0.731,0.732" style="fill:none;fill-rule:nonzero;stroke:#3b4cc0;stroke-width:3.52px;"/><path d="M13.879,183.459l0.203,0.203l2.01,2.016l0.399,0.4l2.016,2.022l0.393,0.394l2.023,2.028l0.386,0.387l2.03,2.034l0.38,0.382l2.035,2.039l0.376,0.377l2.04,2.043l0.371,0.372l2.045,2.048l0.367,0.368" style="fill:none;fill-rule:nonzero;stroke:#4a63d3;stroke-width:3.52px;"/><path d="M20.959,171.548l0.037,0.036l2.343,2.351l0.064,0.065l2.351,2.358l0.057,0.058l2.359,2.365l0.05,0.05l2.366,2.373l0.043,0.043l2.372,2.379l0.037,0.036l2.379,2.385l0.031,0.031l2.384,2.389l0.027,0.027l2.389,2.393l0.022,0.022l2.394,2.397l0.019,0.019l2.396,2.4l0.017,0.016l2.399,2.401l0.015,0.014l2.401,2.403l0.013,0.013" style="fill:none;fill-rule:nonzero;stroke:#5a78e4;stroke-width:3.52px;"/><path d="M28.041,159.635l2.278,2.287l0.267,0.267l2.14,2.148l0.275,0.277l2.132,2.139l0.284,0.285l2.124,2.131l0.291,0.292l2.117,2.123l0.299,0.3l2.109,2.116l0.307,0.307l2.103,2.109l0.312,0.313l2.098,2.102l0.318,0.319l2.093,2.097l0.323,0.324l2.088,2.091l0.327,0.328l2.086,2.088l0.33,0.331l2.083,2.085l0.333,0.332l2.082,2.083l0.333,0.334l2.083,2.082l0.333,0.333l2.083,2.083l0.333,0.332l2.085,2.083l0.33,0.331l2.088,2.085" style="fill:none;fill-rule:nonzero;stroke:#6c8ff1;stroke-width:3.52px;"/><path d="M35.123,147.722l2.113,2.121l2.407,2.416l0.605,0.607l1.801,1.809l0.615,0.616l1.792,1.799l0.623,0.626l1.784,1.79l0.632,0.634l1.775,1.782l0.641,0.642l1.767,1.773l0.648,0.651l1.76,1.765l0.656,0.657l1.754,1.759l0.662,0.663l1.748,1.752l0.667,0.669l1.743,1.747l0.673,0.674l1.739,1.742l0.677,0.677l1.737,1.738l0.678,0.68l1.736,1.736l0.68,0.68l1.735,1.735l0.681,0.681l1.736,1.735l0.679,0.679l1.739,1.737l0.677,0.676l1.742,1.739l0.674,0.673l1.746,1.743l0.669,0.668l1.752,1.748l0.664,0.662l1.758,1.753l0.658,0.656l1.765,1.76" style="fill:none;fill-rule:nonzero;stroke:#7ea1fa;stroke-width:3.52px;"/><path d="M42.205,135.808l1.949,1.957l0.925,0.929l1.482,1.487l0.934,0.937l1.472,1.478l0.944,0.947l1.463,1.469l2.406,2.416l0.962,0.965l1.445,1.45l0.971,0.975l1.435,1.441l0.98,0.984l1.427,1.432l0.989,0.992l1.419,1.423l0.997,1.001l1.411,1.415l1.004,1.008l1.404,1.408l1.012,1.014l1.398,1.401l1.018,1.02l1.393,1.396l1.022,1.023l1.391,1.393l1.025,1.026l1.389,1.389l1.027,1.028l1.388,1.388l1.027,1.027l1.39,1.389l1.026,1.025l1.392,1.39l1.024,1.022l1.396,1.394l1.019,1.017l1.402,1.398l1.014,1.012l1.408,1.404l1.008,1.005l1.415,1.411l1,0.997l1.424,1.418l0.992,0.989l1.432,1.427l0.984,0.98l1.441,1.436l0.974,0.971l1.45,1.444l0.966,0.962l1.459,1.454" style="fill:none;fill-rule:nonzero;stroke:#92b4fe;stroke-width:3.52px;"/><path d="M49.283,123.899l1.783,1.788l1.26,1.264l1.149,1.151l1.267,1.272l1.141,1.144l1.275,1.279l1.132,1.137l1.283,1.287l1.125,1.128l1.291,1.296l1.116,1.12l1.3,1.305l1.106,1.111l1.309,1.314l1.098,1.101l2.406,2.416l1.328,1.333l1.079,1.083l1.336,1.341l1.07,1.074l1.346,1.35l1.062,1.066l1.354,1.358l1.054,1.058l1.361,1.364l1.049,1.051l1.367,1.37l1.044,1.046l1.372,1.373l1.041,1.043l1.374,1.374l1.042,1.041l1.374,1.374l1.043,1.042l1.373,1.371l1.046,1.045l1.369,1.366l1.051,1.049l1.365,1.361l1.058,1.055l1.358,1.354l1.065,1.062l1.35,1.345l1.074,1.07l1.342,1.337l1.083,1.079l1.333,1.327l2.415,2.407l1.102,1.097l1.314,1.309l1.111,1.107l1.305,1.3l1.119,1.115l1.296,1.292l1.128,1.124l1.288,1.283l1.136,1.133l1.28,1.275l1.144,1.14l1.271,1.268l1.152,1.148" style="fill:none;fill-rule:nonzero;stroke:#a3c2fe;stroke-width:3.52px;"/><path d="M56.353,111.998l0.805,0.806l0.803,0.804l1.612,1.615l0.8,0.801l1.616,1.619l0.795,0.797l1.621,1.624l0.79,0.791l1.625,1.63l0.785,0.786l1.631,1.635l0.779,0.781l1.637,1.641l0.772,0.774l1.643,1.648l0.766,0.768l1.65,1.655l0.758,0.761l1.658,1.663l0.749,0.752l1.666,1.673l0.741,0.743l1.675,1.681l0.732,0.735l1.684,1.69l0.722,0.725l1.693,1.7l0.714,0.716l1.702,1.708l0.705,0.708l1.711,1.714l0.699,0.701l1.716,1.72l0.696,0.696l1.72,1.721l0.694,0.695l1.722,1.72l0.696,0.695l1.719,1.717l0.701,0.699l1.715,1.71l0.708,0.706l1.708,1.702l0.716,0.713l1.699,1.694l0.725,0.722l1.691,1.684l0.734,0.732l1.682,1.674l0.743,0.741l1.672,1.666l0.752,0.75l1.664,1.658l0.76,0.758l1.656,1.65l0.767,0.765l1.648,1.643l0.775,0.773l1.641,1.637l0.781,0.778l1.635,1.631l0.786,0.785l1.629,1.626l0.792,0.79l1.624,1.621l0.796,0.794l1.62,1.617l0.8,0.799l1.615,1.612l0.805,0.804l1.611,1.608l0.808,0.807l1.608,1.605l0.811,0.811" style="fill:none;fill-rule:nonzero;stroke:#b6cefa;stroke-width:3.52px;"/><path d="M62.2,98.903l0.212,0.211l1.993,1.994l0.421,0.422l1.994,1.995l0.421,0.421l1.995,1.996l0.419,0.419l1.997,1.998l0.417,0.418l1.998,1.999l0.416,0.417l2,2.001l0.414,0.414l2.002,2.004l0.412,0.412l2.003,2.006l0.41,0.41l2.006,2.008l0.407,0.407l2.009,2.012l0.403,0.404l2.012,2.015l0.4,0.401l2.016,2.02l0.395,0.395l2.021,2.026l0.389,0.39l2.026,2.032l0.383,0.384l2.033,2.039l0.375,0.376l2.041,2.049l0.365,0.367l2.05,2.058l0.357,0.358l2.059,2.065l0.35,0.35l2.066,2.069l0.347,0.347l2.068,2.066l0.351,0.35l2.065,2.059l0.358,0.356l2.058,2.05l0.367,0.366l2.048,2.041l0.376,0.375l2.04,2.033l0.384,0.382l2.032,2.026l0.39,0.39l2.025,2.021l0.396,0.395l2.02,2.016l0.4,0.399l2.016,2.012l0.404,0.404l2.011,2.009l0.408,0.407l2.008,2.006l0.41,0.409l2.006,2.004l0.412,0.412l2.003,2.001l0.415,0.415l2.001,1.999l0.416,0.416l2,1.998l0.417,0.418l1.998,1.996l0.419,0.419l1.997,1.996l0.42,0.42l1.995,1.994l0.422,0.422l1.994,1.993l0.423,0.422l1.993,1.993l0.423,0.423l1.992,1.992l0.425,0.424l1.991,1.99l0.425,0.425l1.991,1.99l0.426,0.426" style="fill:none;fill-rule:nonzero;stroke:#c6d6f1;stroke-width:3.52px;"/><path d="M69.236,87.036l4.831,4.831l2.416,2.416l4.831,4.831l2.416,2.416l4.831,4.831l2.416,2.416l4.831,4.831l2.416,2.416l4.831,4.831l2.416,2.416l4.831,4.831l2.416,2.416l70.054,70.054" style="fill:none;fill-rule:nonzero;stroke:#d6dce4;stroke-width:3.52px;"/><path d="M76.483,75.417l1.956,1.956l0.46,0.46l1.955,1.956l0.46,0.461l1.954,1.955l0.462,0.462l1.953,1.953l0.463,0.463l1.951,1.953l0.464,0.464l1.951,1.952l0.465,0.465l1.949,1.95l0.467,0.468l1.947,1.948l0.468,0.469l1.945,1.947l0.471,0.471l1.943,1.944l0.473,0.474l1.94,1.942l0.475,0.476l1.937,1.94l0.479,0.479l1.933,1.936l0.483,0.484l1.928,1.932l0.487,0.488l1.923,1.928l0.493,0.493l1.917,1.922l0.499,0.501l1.909,1.915l0.506,0.508l1.901,1.908l0.515,0.517l1.891,1.898l0.525,0.527l1.883,1.889l0.532,0.533l1.88,1.883l0.536,0.535l1.882,1.88l0.534,0.532l1.889,1.884l0.526,0.524l1.899,1.892l0.517,0.515l1.907,1.9l0.509,0.507l1.915,1.909l0.5,0.499l1.922,1.917l0.494,0.492l1.927,1.923l0.489,0.487l1.932,1.929l0.483,0.483l1.936,1.933l0.48,0.478l1.939,1.937l0.476,0.476l1.943,1.94l0.473,0.473l1.945,1.943l0.471,0.47l1.947,1.945l0.468,0.469l1.949,1.947l0.467,0.467l1.95,1.949l0.466,0.465l1.951,1.95l0.464,0.464l1.953,1.952l0.463,0.463l1.954,1.953l0.462,0.461l1.955,1.954l0.46,0.461l1.956,1.955l0.46,0.46l1.957,1.956l0.459,0.458l1.957,1.957l0.458,0.458l1.959,1.958l0.457,0.457l1.959,1.958l0.457,0.457l1.959,1.959l0.456,0.456l1.96,1.96l0.456,0.455l1.961,1.96l0.455,0.456l1.961,1.96l0.454,0.455l1.962,1.961l0.454,0.454l1.962,1.961l0.454,0.454l1.962,1.962" style="fill:none;fill-rule:nonzero;stroke:#e3d9d3;stroke-width:3.52px;"/><path d="M83.257,63.353l0.473,0.473l1.467,1.469l0.949,0.95l1.464,1.466l0.951,0.952l1.462,1.463l0.954,0.956l1.458,1.46l0.958,0.959l1.454,1.457l0.961,0.962l1.451,1.453l0.965,0.967l1.446,1.449l0.97,0.971l1.441,1.445l0.974,0.976l1.437,1.439l0.979,0.982l1.431,1.434l0.985,0.987l1.424,1.429l0.991,0.993l1.418,1.422l0.998,1.001l1.41,1.415l1.006,1.008l1.402,1.408l1.013,1.016l1.394,1.399l1.022,1.026l1.385,1.39l1.031,1.035l1.375,1.381l1.04,1.044l1.367,1.371l1.049,1.053l1.358,1.363l1.058,1.061l1.351,1.355l1.064,1.067l1.347,1.348l1.069,1.071l1.344,1.345l1.072,1.072l1.344,1.344l1.071,1.069l1.349,1.346l1.067,1.065l1.355,1.351l1.061,1.057l1.362,1.359l1.053,1.049l1.372,1.366l1.044,1.04l1.381,1.376l1.034,1.031l1.391,1.385l1.025,1.021l1.399,1.394l1.017,1.013l1.407,1.403l1.008,1.005l1.415,1.411l1.001,0.997l1.422,1.418l0.994,0.991l1.428,1.425l0.987,0.985l1.435,1.431l0.981,0.979l1.44,1.436l0.976,0.974l1.444,1.442l0.971,0.969l1.449,1.447l0.967,0.965l1.453,1.45l0.963,0.961l1.456,1.455l0.959,0.958l1.461,1.458l0.955,0.954l1.463,1.461l0.953,0.951l1.466,1.465l0.949,0.948l1.469,1.468l0.947,0.945l1.471,1.47l0.945,0.944l1.473,1.472l0.942,0.941l1.476,1.475l0.94,0.939l1.478,1.476l0.938,0.937l1.479,1.479l0.936,0.935l1.482,1.48l0.934,0.934l1.483,1.482l0.933,0.932l1.484,1.484l0.931,0.93l1.486,1.485l0.93,0.93l1.487,1.486l0.929,0.928l1.488,1.488l0.927,0.926l1.49,1.489l0.926,0.926l1.491,1.49" style="fill:none;fill-rule:nonzero;stroke:#efcfbf;stroke-width:3.52px;"/><path d="M90.25,51.528l0.727,0.728l0.959,0.961l1.457,1.459l0.954,0.957l1.461,1.464l0.95,0.951l1.466,1.469l0.944,0.947l1.472,1.475l0.938,0.941l1.477,1.48l0.933,0.935l1.483,1.487l0.926,0.929l1.49,1.494l0.919,0.921l1.496,1.501l0.912,0.915l1.504,1.509l0.904,0.907l1.512,1.516l0.896,0.899l1.519,1.525l0.888,0.891l1.528,1.534l0.879,0.882l1.537,1.542l0.869,0.873l1.546,1.552l2.416,2.425l0.851,0.855l1.565,1.57l0.842,0.845l1.573,1.58l0.834,0.836l1.582,1.587l0.826,0.829l1.59,1.594l0.819,0.821l1.596,1.601l0.814,0.815l1.602,1.605l0.81,0.811l1.606,1.607l0.808,0.808l1.607,1.608l0.809,0.808l1.607,1.606l0.811,0.81l1.604,1.602l0.816,0.813l1.6,1.597l0.821,0.819l1.595,1.59l0.828,0.826l1.587,1.582l0.837,0.833l1.579,1.574l0.845,0.842l1.571,1.564l0.854,0.852l2.425,2.415l1.552,1.546l0.873,0.87l1.543,1.537l0.882,0.879l2.424,2.415l2.424,2.416l1.517,1.511l0.907,0.905l1.508,1.503l0.915,0.912l1.501,1.497l0.922,0.919l1.494,1.49l0.928,0.926l1.487,1.483l0.935,0.932l1.481,1.477l0.941,0.939l1.475,1.471l0.946,0.945l1.469,1.466l0.952,0.949l1.464,1.461l0.957,0.955l1.459,1.456l0.961,0.96l1.454,1.451l0.966,0.964l1.45,1.448l0.97,0.968l1.446,1.444l0.973,0.972l1.442,1.439l0.978,0.976l1.438,1.437l0.981,0.979l1.435,1.433l0.984,0.983l1.431,1.429l0.987,0.986l1.429,1.427" style="fill:none;fill-rule:nonzero;stroke:#f5c2aa;stroke-width:3.52px;"/><path d="M97.238,39.709l0.986,0.988l0.44,0.442l1.976,1.98l0.433,0.435l1.982,1.987l0.427,0.429l1.989,1.994l0.42,0.422l1.996,2.001l0.413,0.414l2.002,2.009l0.406,0.407l2.01,2.016l0.398,0.4l2.018,2.024l2.415,2.424l2.416,2.425l2.416,2.424l0.363,0.365l2.052,2.06l2.416,2.425l2.416,2.425l2.415,2.425l0.327,0.328l2.089,2.097l0.318,0.318l2.098,2.106l0.309,0.31l2.106,2.114l0.301,0.302l2.115,2.121l0.293,0.294l2.123,2.129l0.286,0.287l2.129,2.134l0.281,0.282l2.135,2.138l0.277,0.277l2.138,2.142l0.274,0.274l2.142,2.143l0.273,0.273l2.143,2.143l0.272,0.272l2.143,2.142l0.275,0.274l2.141,2.139l0.277,0.277l2.139,2.134l0.282,0.281l2.133,2.129l0.288,0.287l2.128,2.122l0.294,0.294l2.122,2.115l0.302,0.3l2.113,2.107l0.311,0.309l2.105,2.098l0.319,0.318l2.097,2.089l0.328,0.326l2.087,2.08l0.338,0.336l2.425,2.416l2.425,2.415l2.424,2.416l2.425,2.416l2.042,2.034" style="fill:none;fill-rule:nonzero;stroke:#f7b194;stroke-width:3.52px;"/><path d="M104.222,27.894l1.249,1.252l2.416,2.423l2.415,2.424l2.416,2.423l2.416,2.424l2.415,2.424l2.416,2.425l2.416,2.424l2.415,2.425l2.416,2.425l2.416,2.425l2.415,2.425l2.416,2.425l2.416,2.424l2.208,2.218l0.207,0.207l2.2,2.208l0.216,0.216l2.192,2.2l0.224,0.224l2.183,2.191l0.232,0.233l2.177,2.183l0.239,0.24l2.17,2.176l0.245,0.246l2.165,2.169l0.251,0.252l2.16,2.164l0.256,0.257l2.156,2.159l0.259,0.26l2.154,2.155l0.262,0.263l2.152,2.153l0.264,0.264l2.152,2.152l0.263,0.263l2.154,2.152l0.262,0.263" style="fill:none;fill-rule:nonzero;stroke:#f59f80;stroke-width:3.52px;"/><path d="M111.204,16.08l1.514,1.519l2.416,2.424l2.415,2.424l2.416,2.425l2.416,2.424l2.415,2.425l2.416,2.424l2.416,2.425l2.415,2.425l2.416,2.425l2.416,2.425l2.415,2.425l1.694,1.7l0.722,0.725" style="fill:none;fill-rule:nonzero;stroke:#ef886b;stroke-width:3.52px;"/><path d="M117.549,2.488l-115.061,199.292l230.122,-0l-115.061,-199.292" style="fill:none;fill-rule:nonzero;stroke:#000;stroke-width:3.52px;stroke-linecap:square;"/><path d="M164.051,135.349l-0.144,-3.648l-0.429,-3.626l-0.712,-3.581l-0.991,-3.514l-1.264,-3.426l-1.529,-3.316l-1.784,-3.186l-2.028,-3.036l-2.261,-2.867l-2.478,-2.681l-2.681,-2.479l-2.868,-2.26l-3.036,-2.029l-3.186,-1.784l-3.315,-1.528l-3.426,-1.264l-3.514,-0.991l-3.581,-0.713l-3.626,-0.429l-3.649,-0.143l-3.648,0.143l-3.626,0.429l-3.581,0.713l-3.514,0.991l-3.426,1.264l-3.316,1.528l-3.186,1.784l-3.036,2.029l-2.867,2.26l-2.681,2.479l-2.479,2.681l-2.26,2.867l-2.029,3.036l-1.784,3.186l-1.528,3.316l-1.264,3.426l-0.991,3.514l-0.713,3.581l-0.429,3.626l-0.143,3.648l0.143,3.649l0.429,3.626l0.713,3.581l0.991,3.514l1.264,3.426l1.528,3.316l1.784,3.185l2.029,3.036l2.26,2.868l2.479,2.681l2.681,2.478l2.867,2.261l3.036,2.028l3.186,1.784l3.316,1.529l3.426,1.264l3.514,0.991l3.581,0.712l3.626,0.429l3.648,0.144l3.649,-0.144l3.626,-0.429l3.581,-0.712l3.514,-0.991l3.426,-1.264l3.315,-1.529l3.186,-1.784l3.036,-2.028l2.868,-2.261l2.681,-2.478l2.478,-2.681l2.261,-2.868l2.028,-3.036l1.784,-3.185l1.529,-3.316l1.264,-3.426l0.991,-3.514l0.712,-3.581l0.429,-3.626l0.138,-2.918" style="fill:none;fill-rule:nonzero;stroke:#000;stroke-width:3.52px;stroke-linecap:square;"/><path d="M218.001,34.897l-9.395,18.79l-4.227,-4.228l-86.36,86.36l-0.939,-0.939l86.359,-86.36l-4.227,-4.228l18.789,-9.395Z" style="fill-rule:nonzero;stroke:#000;stroke-width:3.52px;stroke-linejoin:miter;"/></g><g><path d="M274.169,220.366l4.831,4.831l2.416,2.416l4.831,4.831l2.416,2.416l4.831,4.831l2.416,2.416l4.831,4.831l2.416,2.416l4.831,4.831l2.416,2.416l4.831,4.831l2.416,2.416l70.054,70.054" style="fill:none;fill-rule:nonzero;stroke:#d6dce4;stroke-width:3.52px;"/><path d="M324.173,139.924l0.122,0.725l0.404,2.416l0.199,1.184l0.187,1.232l0.367,2.415l0.365,2.416l0.362,2.416l0.36,2.415l0.358,2.416l0.355,2.415l0.061,0.422l0.263,1.994l0.314,2.416l0.31,2.415l0.305,2.416l0.3,2.416l0.295,2.415l0.29,2.416l0.284,2.416l0.055,0.473l0.199,1.942l0.241,2.416l0.233,2.416l0.226,2.415l0.216,2.416l0.208,2.416l0.199,2.415l0.188,2.416l0.177,2.416l0.165,2.415l0.154,2.416l0.14,2.416l0.07,1.316l0.049,1.099l0.097,2.416l0.083,2.416l0.067,2.415l0.052,2.416l0.036,2.416l0.017,2.415l-0,2.416l-0.019,2.416l-0.04,2.415l-0.06,2.416l-0.082,2.416l-0.105,2.415l-0.095,1.779l-0.038,0.637l-0.168,2.416l-0.188,2.415l-0.198,2.416l-0.195,2.416l-0.157,2.415l-0.015,2.416l0.595,2.416l0.364,0.363l2.415,0.595l2.416,-0.015l2.415,-0.157l2.416,-0.195l2.416,-0.198l2.415,-0.188l2.416,-0.168l0.637,-0.037l1.779,-0.096l2.415,-0.105l2.416,-0.082l2.416,-0.06l2.415,-0.039l2.416,-0.02l2.416,-0l2.415,0.018l2.416,0.035l2.416,0.052l2.415,0.067l2.416,0.083l2.416,0.097l1.099,0.05l1.316,0.069l2.416,0.14l2.416,0.154l2.415,0.165l2.416,0.177l0.773,0.068" style="fill:none;fill-rule:nonzero;stroke:#e3d9d3;stroke-width:3.52px;"/><path d="M342.533,172.779l0.036,1.689l0.033,2.416l0.023,2.416l0.013,2.415l0.005,2.416l-0.006,2.416l-0.015,2.415l-0.025,2.416l-0.036,2.416l-0.047,2.415l-0.057,2.416l-0.068,2.416l-0.079,2.415l-0.091,2.416l-0.102,2.416l-0.114,2.415l-0.126,2.416l-0.07,1.219l-0.071,1.197l-0.158,2.415l-0.169,2.416l-0.179,2.416l-0.188,2.415l-0.197,2.416l-0.203,2.416l-0.206,2.415l-0.205,2.416l-0.196,2.416l-0.173,2.415l-0.123,2.416l-0.012,2.416l0.252,2.415l0.957,2.416l0.871,0.871l2.416,0.957l2.415,0.252l2.416,-0.012l2.416,-0.123l2.415,-0.173l2.416,-0.196l2.416,-0.205l2.415,-0.206l2.416,-0.203l2.416,-0.197l2.415,-0.188l2.416,-0.179l2.416,-0.169l2.415,-0.158l1.197,-0.071l1.219,-0.07l2.416,-0.126l2.415,-0.114l2.416,-0.102l1.939,-0.065" style="fill:none;fill-rule:nonzero;stroke:#efcfbf;stroke-width:3.52px;"/><path d="M351.47,187.204l-0.106,1.758l-0.155,2.416l-0.161,2.416l-0.17,2.415l-0.176,2.416l-0.183,2.416l-0.19,2.415l-0.195,2.416l-0.201,2.416l-0.206,2.415l-0.209,2.416l-0.21,2.416l-0.211,2.415l-0.043,0.509l-0.16,1.907l-0.189,2.416l-0.167,2.415l-0.133,2.416l-0.077,2.416l0.012,2.415l0.161,2.416l0.425,2.416l0.128,0.384l1.02,2.031l1.396,1.396l2.031,1.02l0.384,0.128l2.416,0.425l2.416,0.161l2.415,0.012l2.416,-0.077l2.416,-0.133l2.415,-0.167l2.416,-0.189l1.907,-0.16l0.509,-0.043l2.415,-0.211l2.416,-0.21l2.416,-0.209l1.608,-0.135" style="fill:none;fill-rule:nonzero;stroke:#f5c2aa;stroke-width:3.52px;"/><path d="M358.221,198.13l-0.043,0.495l-0.208,2.416l-0.203,2.415l-0.195,2.416l-0.183,2.416l-0.167,2.415l-0.142,2.416l-0.106,2.416l-0.054,2.415l0.022,2.416l0.139,2.416l0.32,2.415l0.613,2.416l0.703,1.614l0.489,0.802l1.926,1.926l0.802,0.489l1.614,0.703l2.416,0.613l2.415,0.32l2.416,0.139l2.416,0.022l2.415,-0.054l2.416,-0.106" style="fill:none;fill-rule:nonzero;stroke:#f7b194;stroke-width:3.52px;"/><path d="M365.895,213.05l0.003,0.069l0.066,0.408l0.385,2.008l0.761,2.415l1.232,2.416l0.037,0.052l2.364,2.364l0.052,0.037l0.067,0.029" style="fill:none;fill-rule:nonzero;stroke:#f59f80;stroke-width:3.52px;"/><path d="M322.482,135.818l-115.061,199.292l230.122,-0l-115.061,-199.292" style="fill:none;fill-rule:nonzero;stroke:#000;stroke-width:3.52px;stroke-linecap:square;"/><path d="M368.983,268.679l-0.143,-3.648l-0.429,-3.626l-0.713,-3.581l-0.991,-3.515l-1.263,-3.425l-1.529,-3.316l-1.784,-3.186l-2.029,-3.036l-2.26,-2.867l-2.479,-2.681l-2.681,-2.479l-2.867,-2.26l-3.036,-2.029l-3.186,-1.784l-3.316,-1.529l-3.425,-1.263l-3.515,-0.991l-3.581,-0.713l-3.626,-0.429l-3.648,-0.143l-3.649,0.143l-3.626,0.429l-3.581,0.713l-3.514,0.991l-3.425,1.263l-3.316,1.529l-3.186,1.784l-3.036,2.029l-2.867,2.26l-2.682,2.479l-2.478,2.681l-2.261,2.867l-2.028,3.036l-1.784,3.186l-1.529,3.316l-1.264,3.425l-0.991,3.515l-0.712,3.581l-0.429,3.626l-0.144,3.648l0.144,3.649l0.429,3.626l0.712,3.581l0.991,3.514l1.264,3.425l1.529,3.316l1.784,3.186l2.028,3.036l2.261,2.867l2.478,2.682l2.682,2.478l2.867,2.261l3.036,2.028l3.186,1.784l3.316,1.529l3.425,1.264l3.514,0.991l3.581,0.712l3.626,0.429l3.649,0.144l3.648,-0.144l3.626,-0.429l3.581,-0.712l3.515,-0.991l3.425,-1.264l3.316,-1.529l3.186,-1.784l3.036,-2.028l2.867,-2.261l2.681,-2.478l2.479,-2.682l2.26,-2.867l2.029,-3.036l1.784,-3.186l1.529,-3.316l1.263,-3.425l0.991,-3.514l0.713,-3.581l0.429,-3.626l0.138,-2.918" style="fill:none;fill-rule:nonzero;stroke:#000;stroke-width:3.52px;stroke-linecap:square;"/><path d="M422.934,168.227l-9.395,18.79l-4.228,-4.228l-86.359,86.36l-0.94,-0.94l86.36,-86.359l-4.228,-4.228l18.79,-9.395Z" style="fill-rule:nonzero;stroke:#000;stroke-width:3.52px;stroke-linejoin:miter;"/></g></svg>