<?xml version="1.0" encoding="UTF-8" standalone="no"?><!DOCTYPE svg PUBLIC "-//W3C//DTD SVG 1.1//EN" "http://www.w3.org/Graphics/SVG/1.1/DTD/svg11.dtd"><svg width="100%" height="100%" viewBox="0 0 918 986" version="1.1" xmlns="http://www.w3.org/2000/svg" xmlns:xlink="http://www.w3.org/1999/xlink" xml:space="preserve" xmlns:serif="http://www.serif.com/" style="fill-rule:evenodd;clip-rule:evenodd;stroke-linecap:round;stroke-linejoin:round;stroke-miterlimit:1.5;"><g><g><path d="M277.401,101.48c1.251,19.395 1.54,14.189 2.15,33.344c0.544,17.05 21.882,29.248 24.858,30.633c1.528,0.711 20.634,9.233 22.136,9.047c3.492,-0.431 0.616,2.576 28.755,6.153c9.463,1.203 13.759,2.364 22.697,0.879c25.529,-4.243 6.507,-3.218 32.864,-4.35c12.193,-0.523 24.337,-13.865 36.746,-12.887c12.433,0.979 12.994,-16.8 25.036,-17.465c8.494,-0.469 11,-12.152 9.769,-22.285c-1.148,-9.442 -2.677,-13.049 -9.774,-23.248c-5.672,-8.15 -8.789,-7.451 -15.703,-16.522c-10.459,-13.72 -30.07,-12.95 -40.769,-9.516c-5.8,1.862 9.778,25.316 13.547,31.729c21.413,36.432 -67.922,51.249 -101.257,36.465c-9.991,-4.432 -52.44,-33.464 -51.055,-41.977Z" style="fill:#7f6f6f;stroke:#000;stroke-width:8.29px;"/><g><path d="M478.438,90.899c1.163,18.023 13.916,27.392 11.783,44.759c-1.091,8.883 -20.292,26.097 -26.208,31.734c-0.551,0.526 16.777,18.787 18.199,19.672c4.79,2.981 30.18,-0.248 35.233,1.701c14.9,5.747 40.901,1.926 55.106,2.173c28.754,0.501 13.935,1.262 41.338,-4.559c10.064,-2.138 40.455,-10.864 40.468,-11.004c3.292,-35.016 -59.822,-62.012 -84.955,-73.028c-8.604,-3.771 -36.727,-17.926 -45.463,-19.123c-6.514,-0.893 -38.015,-5.908 -41.307,1.151c-0.838,1.795 -4.194,6.524 -4.194,6.524Z" style="fill:#c1a7a7;stroke:#000;stroke-width:8.29px;"/><path d="M486.579,188.156c48.229,-37.846 44.449,-16.192 47.998,-37.877c3.549,-21.686 5.285,-8.332 3.377,-24.344c-1.907,-16.012 -10.326,-42.222 -10.326,-42.222" style="fill:#c1a7a7;stroke:#000;stroke-width:8.29px;"/><path d="M514.402,187.846c48.6,-32.103 44.635,-13.314 48.369,-32.135c3.734,-18.821 5.361,-7.162 3.584,-21.14c-1.776,-13.977 -9.986,-36.951 -9.986,-36.951" style="fill:#c1a7a7;stroke:#000;stroke-width:8.35px;"/><path d="M537.085,190.956c48.836,-29.376 44.777,-11.943 48.605,-29.408c3.827,-17.464 5.403,-6.606 3.688,-19.621c-1.716,-13.015 -9.835,-34.457 -9.835,-34.457" style="fill:#c1a7a7;stroke:#000;stroke-width:8.39px;"/><path d="M579.643,190.75c28.351,-26.453 26.237,-11.612 28.214,-26.472c1.977,-14.859 3.083,-5.757 1.86,-16.674c-1.224,-10.916 -6.363,-28.72 -6.363,-28.72" style="fill:#c1a7a7;stroke:#000;stroke-width:8.23px;"/><path d="M605.606,188.113c24.89,-20.069 22.953,-8.624 24.771,-20.085c1.817,-11.461 2.724,-4.41 1.727,-12.865c-0.998,-8.456 -5.367,-22.288 -5.367,-22.288" style="fill:#c1a7a7;stroke:#000;stroke-width:8.28px;"/></g><path d="M315.115,166.781c-4.024,-2.768 -9.863,-10.864 -16.135,-11.275c-0.835,-0.055 0.541,5.018 1.068,7.559c0.499,2.407 -0.675,5.781 0.585,8.345c3.313,6.739 5.426,14.31 9.614,20.751c12.251,18.842 32.713,36.783 35.206,59.978c0.421,3.925 1.676,8.566 1.355,12.302c-0.3,3.496 -7.037,23.891 -7.784,24.018c-0.759,0.129 3.776,0.708 3.702,0.42c-0.942,-3.667 4.07,-11.674 5.183,-16.301c2.503,-10.394 1.114,-21.933 -0.229,-32.661c-0.528,-4.225 -3.407,-7.53 -4.862,-11.417c-1.143,-3.054 -1.113,-6.349 -3.051,-9.214c-7.18,-10.608 -18.589,-19.984 -22.819,-32.205c-1.549,-4.475 -7.586,-6.886 -7.049,-12.159c0.24,-2.36 10.995,-1.636 12.963,-2.411c1.553,-0.611 -7.747,-5.73 -7.747,-5.73Z" style="fill:#fff;stroke:#000;stroke-width:8.93px;"/><path d="M339.304,180.68c-2.566,-6.264 -0.669,-17.458 -1.506,-24.818c-0.112,-0.98 -1.44,-25.729 0.661,-23.569c1.99,2.047 11.356,26.512 13.535,29.518c5.727,7.901 1.628,7.359 7.183,16.068c16.253,25.479 27.028,66.993 46.024,84.09c3.214,2.893 10.532,11.03 13.533,12.966c2.809,1.811 10.834,11.656 16.039,8.411c0.579,-0.361 -1.582,6.293 -1.821,6.033c-3.048,-3.325 -17.818,-12.281 -21.478,-13.866c-8.222,-3.56 -10.131,-5.587 -16.733,-15.501c-2.624,-3.941 -10.512,-18.068 -13.061,-23.548c-1.68,-3.612 -12.533,-23.97 -15.023,-27.908c-8.529,-13.493 0.654,1.309 -13.687,-29.547c-2.667,-5.738 -3.231,-16.637 -7.461,-19.272c-1.894,-1.18 -0.443,11.454 -0.912,13.207c-0.371,1.384 -5.293,7.736 -5.293,7.736Z" style="fill:#fff;stroke:#000;stroke-width:7.84px;"/><path d="M367.703,163.989c1.866,-4.371 30.151,-8.793 38.709,-10.279c1.139,-0.198 27.143,0.563 30.053,4.109c2.756,3.358 6.249,9.079 8.122,12.764c4.925,9.686 11.059,21.981 13.884,31.272c11.549,37.994 3.589,47.094 7.753,61.479c1.614,5.575 2.494,12.614 10.845,21.438c5.125,5.415 9.958,11.937 15.836,16.989c5.5,4.727 44.866,31.566 46.139,31.629c1.294,0.064 -4.485,1.523 -4.794,1.12c-3.935,-5.144 -22.844,-15.332 -31.17,-21.482c-18.703,-13.817 -23.249,-20.871 -36.825,-35.71c-5.345,-5.843 -1.869,-6.593 -5.375,-12.113c-2.753,-4.336 -2.522,-15.786 -3.841,-19.981c-4.883,-15.536 -0.683,-31.022 -12.206,-48.324c-4.219,-6.336 -6.011,-19.539 -14.432,-26.656c-3.768,-3.186 -30.195,-1.109 -34.189,-1.876c-3.151,-0.605 -28.509,-4.379 -28.509,-4.379Z" style="fill:#fff;stroke:#000;stroke-width:8.96px;"/><path d="M315.302,64.769c-0,0 -8.167,2.978 -19.406,9.372c-66.316,37.73 95.751,120.963 122.691,30.341c1.748,-5.879 2.089,-7.589 2.376,-14.314c0.713,-16.733 -26.446,-38.777 -37.19,-38.261c-12.611,0.606 -40.5,0.696 -48.709,5.723c-0.866,0.53 -20.306,5.83 -19.762,7.139Z" style="fill:#c1a7a7;stroke:#000;stroke-width:8.6px;"/></g><g><path d="M205.649,95.523c-1.91,0.766 -4.368,8.882 -5.209,12.763c-0.676,3.12 -3.087,29.406 -2.136,33.513c1.65,7.126 22.121,30.17 20.588,34.3c-2.401,6.468 -9.214,13.546 -12.403,19.799c-3.945,7.734 21.205,9.003 22.418,7.622c7.351,-8.372 7.47,-27.279 15.948,-32.556c26.496,-16.492 54.911,-23.382 56.44,-62.935c0.176,-4.541 2.98,-21.728 0.969,-25.67c-2.382,-4.668 -1.808,-8.886 -4.374,-13.452c-11.236,-19.993 -32.775,-13.347 -62.383,-2.773c-5.584,1.993 -18.299,11.362 -22.256,16.79c-1.994,2.734 -8.262,11.685 -7.602,12.599Z" style="fill:#c1a7a7;stroke:#000;stroke-width:8.44px;"/><path d="M217.949,117.502c-0.638,0.104 -0.605,8.009 -0.634,8.764c-0.219,5.645 -2.674,15.995 2.806,19.024c5.374,2.971 12.756,2.229 19.317,0.254c28.716,-8.644 41.809,-47.356 31.168,-60.732c-10.506,-13.206 -33.634,-7.526 -45.204,4.82c-6.033,6.437 -7.358,20.322 -7.647,27.787" style="fill:#f04170;stroke:#000;stroke-width:8.44px;"/></g><g><path d="M337.242,137.289c29.211,4.322 62.185,12.546 85.897,-5.044c7.165,-5.316 11.594,-14.118 18.291,-20.005c5.773,-5.073 13.165,-7.353 18.597,-12.959c16.442,-16.968 21.705,-26.266 50.705,-18.035c16.367,4.645 30.995,16.913 46.631,24.845c41.278,20.943 85.092,43.44 121.369,76.534c8.524,7.776 45.751,39.484 40.636,50.97c-4.989,11.201 -59.146,-0.462 -71.974,-2.36c-28.512,-4.218 -56.561,-18.527 -85.091,-24.851c-25.322,-5.612 -38.93,-8.237 -64.233,-14.774c-22.724,-5.871 -32.587,-8.844 -55.326,-12.242c-2.951,-0.442 -14.642,-4.921 -35.077,-13.029c-12.15,-4.821 -22.547,-6.005 -31.989,-11.687c-3.243,-1.95 -37.294,-2.441 -39.827,-5.52c-3.801,-4.622 -10.5,-8.051 -9.586,-8.998c0.451,-0.466 10.977,-2.845 10.977,-2.845Z" style="fill:#fff;fill-opacity:0.79;stroke:#000;stroke-width:8.24px;"/><path d="M409.03,167.121c-0.056,-1.084 1.923,0.089 2.837,-0.07c2.146,-0.371 4.125,-1.032 6.188,-1.643c6.054,-1.792 11.559,-5.756 16.799,-9.165c9.451,-6.149 20.296,-11.003 28.277,-19.265c5.443,-5.634 4.965,-15.314 10.431,-20.972" style="fill:none;stroke:#000;stroke-width:8.24px;"/><path d="M445.874,153.908c11.658,1.724 21.691,-2.159 33.096,-1.539c25.68,1.395 52.374,3.195 78.33,13.106c14.284,5.454 29.714,13.558 41.925,25.087c6.417,6.059 13.313,12.135 19.968,17.605c1.605,1.319 5.188,4.762 7.049,5.037" style="fill:none;stroke:#000;stroke-width:8.24px;"/><path d="M626.624,213.373c4.991,0.739 10.667,-2.837 15.602,-3.412c4.801,-0.56 10.505,0.998 15.495,1.736c11.126,1.646 23.928,2.731 34.746,8.73c5.76,3.194 10.287,6.702 14.813,12.102c0.483,0.577 4.024,3.965 4.049,4.447" style="fill:none;stroke:#000;stroke-width:8.24px;"/><path d="M543.864,160.729c18.416,2.724 35.872,0.86 51.96,-5.986c5.07,-2.158 10.671,-3.849 15.012,-7.352c2.505,-2.02 7.101,-6.905 10.926,-6.339" style="fill:none;stroke:#000;stroke-width:8.24px;"/><path d="M591.85,183.256c19.881,2.941 38.335,-1.831 57.418,-3.628c9.575,-0.901 19.881,1.733 28.919,3.071" style="fill:none;stroke:#000;stroke-width:8.24px;"/><path d="M487.649,152.348c5.379,0.796 11.483,-3.45 15.882,-5.652c4.262,-2.134 8.313,-4.962 11.809,-8.316c3.911,-3.753 6.698,-9.287 10.984,-12.546c5.988,-4.553 12.553,-7.33 15.189,-15.642c0.771,-2.432 4.447,-5.825 4.331,-8.056" style="fill:none;stroke:#000;stroke-width:8.24px;"/></g><g><path d="M373.71,49.5c-2.351,2.922 2.732,-0.994 28.356,11.939c7.744,3.908 13.833,10.027 21.287,14.296c6.425,3.679 13.657,5.56 19.899,9.581c18.895,12.17 25.856,18.661 50.171,14.512c13.722,-2.342 24.07,-9.883 36.355,-14.467c32.43,-12.1 66.79,-25.124 91.822,-45.617c5.882,-4.816 32.102,-24.335 24.758,-32.288c-7.163,-7.755 -51.121,0.338 -62.288,1.003c-24.82,1.479 -38.37,11.401 -68.375,15.688c-24.163,3.452 -29.661,8.497 -51.028,11.685c-19.189,2.863 -26.338,5.706 -46.125,6.909c-2.568,0.156 -11.185,2.037 -27.774,6.511c-9.863,2.66 -15.493,-1.699 -17.058,0.248Z" style="fill:#fff;fill-opacity:0.71;stroke:#000;stroke-width:8.23px;"/><path d="M407.007,45.885c10.01,4.576 20.976,8.349 30.153,14.273c6.259,4.041 8.113,10.516 14.398,14.573" style="fill:none;stroke:#000;stroke-width:8.23px;"/><path d="M417.537,47.976c10.149,-0.605 20.15,2.477 30.33,2.602c22.923,0.282 46.669,0.34 67.83,-5.082c11.646,-2.984 23.704,-7.692 32.038,-14.852c4.379,-3.762 9.188,-7.514 13.923,-10.87c1.141,-0.809 3.573,-2.951 5.192,-3.047" style="fill:none;stroke:#000;stroke-width:8.23px;"/><path d="M567.156,16.631c4.346,-0.259 10.329,2.411 14.933,3.031c4.48,0.604 9.277,-0.171 13.621,-0.43c9.685,-0.577 21.021,-0.698 29.4,-4.213c4.461,-1.871 7.731,-4.01 10.554,-7.421c0.301,-0.364 2.707,-2.471 2.616,-2.793" style="fill:none;stroke:#000;stroke-width:8.23px;"/><path d="M504.653,48.045c16.031,-0.956 32.277,1.124 48.461,6.482c5.101,1.689 10.571,3.09 15.329,5.647c2.745,1.475 8.06,4.972 11.39,4.774" style="fill:none;stroke:#000;stroke-width:8.23px;"/><path d="M542.782,35.199c17.307,-1.032 35.143,3.047 52.847,5.158c8.882,1.06 17.592,-0.22 25.46,-0.689" style="fill:none;stroke:#000;stroke-width:8.23px;"/><path d="M455.731,51.004c4.682,-0.279 11.212,2.861 15.715,4.547c4.363,1.635 8.699,3.725 12.657,6.143c4.427,2.704 8.258,6.552 12.908,8.942c6.497,3.34 13.097,5.516 17.447,11.22c1.273,1.67 5.402,4.122 5.824,5.614" style="fill:none;stroke:#000;stroke-width:8.23px;"/></g></g><path d="M266.154,617.305c1.209,6.01 6.69,19.976 9.178,28.615c2.163,7.508 4.581,15.536 5.754,23.221c1.125,7.374 1.97,15.329 1.283,22.892c-0.771,8.487 -3.489,19.072 -5.909,28.032c-2.866,10.613 -9.569,26.872 -11.287,35.648c-1.047,5.35 -0.941,13.622 0.981,17.008c1.922,3.385 7.013,4.125 10.551,3.306c4.665,-1.081 11.81,-5.527 17.438,-9.788c6.929,-5.247 16.914,-16.156 24.139,-21.693c6.225,-4.77 13.567,-9.226 19.209,-11.525c4.787,-1.95 10.342,-2.341 14.644,-2.268c3.752,0.065 9.528,-3.658 11.165,2.711c3.565,13.863 5.894,22.752 16.151,40.188c5.024,8.541 10.2,17.252 16.278,22.846c6.428,5.915 16.222,12.648 22.29,12.648c5.21,0 9.389,-8.525 14.118,-12.648c4.761,-4.151 11.324,-8.369 14.445,-12.255c2.02,-2.515 2.867,-8.38 4.283,-11.062c1.173,-2.222 2.788,-3.505 4.215,-5.032c1.412,-1.51 3.076,-3.873 4.347,-4.131c1.179,-0.24 2.698,0.787 3.283,2.579c0.585,1.792 0.211,5.445 0.228,8.172c0.019,2.941 -0.674,6.496 -0.115,9.474c0.679,3.622 2.405,8.751 4.191,12.255c2.117,4.15 6.004,10.54 8.507,12.648c1.983,1.67 4.531,1.669 6.514,0c3.205,-2.697 8.464,-10.826 12.716,-16.184c4.352,-5.484 10.217,-13.932 13.395,-16.718c1.715,-1.504 3.784,-0.059 5.675,-0c2.439,0.076 5.983,0.945 8.959,0.457c11.845,-1.942 48.479,-8.005 62.111,-12.109c6.838,-2.059 13.61,-8.769 19.685,-12.517c5.569,-3.436 11.611,-4.708 16.764,-9.969c6.363,-6.498 16.641,-21.591 21.415,-29.017c2.819,-4.383 5.781,-12.026 7.231,-15.535c0.67,-1.624 1.011,-3.65 1.466,-5.521c0.537,-2.209 1.464,-5.324 1.757,-7.732c0.265,-2.182 0.299,-5.516 0,-6.717c-0.257,-1.032 -1.209,-0.76 -1.796,-0.486c-0.662,0.31 -1.567,1.263 -2.175,2.343c-0.744,1.324 -1.726,3.503 -2.294,5.601c-0.569,2.099 -0.718,5.015 -1.116,6.991c-0.342,1.692 -1.277,4.868 -1.277,4.868c-0,0 0.935,-3.176 1.277,-4.868c0.398,-1.976 0.746,-4.749 1.116,-6.991c0.356,-2.16 0.629,-4.862 1.099,-6.461c0.387,-1.315 1.074,-2.336 1.72,-3.133c0.646,-0.797 1.831,-1.082 2.158,-1.651c0.233,-0.406 -0.034,-1.245 -0.197,-1.76c-0.22,-0.691 -0.644,-1.817 -1.119,-2.388c-2.47,-2.968 -8.907,-11.074 -13.7,-15.419c-4.978,-4.514 -10.635,-8.599 -16.173,-11.664c-6.563,-3.631 -15.388,-7.47 -23.199,-10.124c-7.882,-2.678 -16.412,-4.284 -24.089,-5.946c-7.312,-1.582 -14.635,-3.005 -21.975,-4.026c-7.627,-1.061 -15.85,-2.032 -23.789,-2.34c-8.64,-0.334 -19.274,-0.179 -28.05,0.333c-8.213,0.478 -19.686,2.027 -24.607,2.734c-1.656,0.238 -3.302,1.349 -4.919,1.507c-1.595,0.156 -3.417,0.49 -4.782,-0.56c-1.365,-1.05 -2.206,-3.974 -3.408,-5.738c-3.352,-4.918 -10.611,-17.389 -16.704,-23.773c-6.093,-6.385 -14.32,-13.277 -19.853,-14.531c-4.584,-1.039 -9.195,3.181 -13.343,7.005c-4.729,4.361 -11.803,14.175 -15.034,19.157c-1.848,2.851 -3.312,7.628 -4.35,10.734c-0.816,2.443 -1.858,5.573 -1.878,7.905c-0.019,2.311 1.007,4.464 1.763,6.086c0.744,1.597 1.836,2.47 2.775,3.646c1.297,1.623 3.469,4.634 5.006,6.093c1.324,1.256 2.776,2.004 4.218,2.659c1.599,0.726 3.908,1.055 5.377,1.696c1.174,0.513 3.257,1.593 3.432,2.151c0.174,0.558 -1.583,0.87 -2.388,1.195c-4.783,1.932 -17.889,8.252 -26.311,10.394c-8.014,2.038 -16.179,3.99 -24.224,2.458c-9.046,-1.723 -21.606,-6.985 -30.052,-12.792c-7.424,-5.104 -14.597,-15.972 -20.623,-22.049c-5.089,-5.132 -10.116,-10.935 -15.534,-14.413c-5.418,-3.477 -13.116,-5.474 -16.974,-6.453c-2.042,-0.518 -4.651,-0.133 -6.174,0.581c-1.15,0.539 -2.209,1.981 -2.965,3.704c-0.814,1.858 -2.444,4.864 -1.924,7.446Z" style="fill:#fff;stroke:#000;stroke-width:8.33px;"/><path d="M273.96,627.215c2.406,-2.348 10.819,-5.246 16.297,-4.522c5.564,0.734 14.187,6.267 17.089,8.931c1.125,1.032 1.568,6.784 0.325,7.051c-2.624,0.565 -11.636,-4.277 -16.069,-3.665c-3.731,0.515 -7.897,7.04 -10.528,7.335c-2.006,0.226 -4.072,-3.04 -5.258,-5.562c-1.185,-2.521 -3.456,-8.007 -1.856,-9.568Z" style="fill:#a6a6a6;stroke:#000;stroke-width:3.13px;"/><path d="M284.292,655.002c2.462,-2.315 13.079,-5.338 19.691,-4.811c7.021,0.559 14.984,5.19 22.435,8.169c9.388,3.754 22.329,13.441 33.892,14.353c15.474,1.219 39.283,-5.259 58.949,-7.036c22.647,-2.046 53.636,-4.116 76.934,-5.241c20.947,-1.011 47.57,-0.71 62.856,-1.507c9.634,-0.503 23.057,-4.086 28.862,-3.278c2.438,0.339 6.618,5.928 5.969,8.125c-0.65,2.196 -6.49,4.219 -9.868,5.053c-8.348,2.064 -26.761,6.387 -40.219,7.326c-16.953,1.183 -41.002,-0.992 -61.497,-0.229c-23.104,0.86 -56.307,4.133 -77.129,5.388c-15.932,0.96 -36.052,4.292 -47.807,2.14c-7.983,-1.461 -14.855,-12.131 -22.727,-15.048c-8.705,-3.224 -21.933,-3.581 -29.503,-4.302c-5.3,-0.504 -12.445,1.495 -15.918,-0.022c-2.225,-0.972 -6.967,-7.154 -4.92,-9.08Z" style="fill:#a6a6a6;stroke:#000;stroke-width:3.13px;"/><path d="M288.394,677.597c5.029,-1.424 20.135,3.612 30.174,5.889c12.918,2.928 36.614,9.737 47.331,11.684c5.631,1.023 11.315,0.292 16.969,-0c10.136,-0.523 31.161,-2.614 43.844,-3.137c10.749,-0.443 21.507,0.587 32.255,0c14.262,-0.779 37.163,-3.249 53.319,-4.673c14.54,-1.282 31.973,-3.229 43.62,-3.874c8.748,-0.486 21.457,-1.425 26.257,-0c1.711,0.507 4.242,7.934 2.541,8.547c-7.43,2.68 -31.383,5.888 -47.122,7.534c-21.42,2.241 -56.849,4.855 -81.395,5.911c-21.955,0.944 -44.007,2.141 -65.882,0.423c-21.852,-1.716 -48.381,-8.42 -65.366,-10.731c-12.163,-1.655 -30.454,-0.208 -36.545,-3.137c-2.472,-1.189 -2.523,-13.721 -0,-14.436Z" style="fill:#a6a6a6;stroke:#000;stroke-width:3.13px;"/><path d="M290.683,704.055c-3.028,0.079 -9.006,10.719 -6.13,12.49c3.27,2.014 17.17,-0.636 25.754,-0.404c10.87,0.294 26.318,1.012 39.464,2.167c18.174,1.598 48.602,5.846 69.578,7.417c18.748,1.404 39.566,2.552 56.278,2.01c14.692,-0.477 29.342,-3.137 43.992,-5.265c16.353,-2.375 44.116,-5.917 54.125,-8.986c2.564,-0.786 8.528,-9.441 5.929,-9.429c-15.11,0.073 -64.731,8.237 -96.59,9.868c-31.51,1.612 -63.056,1.533 -94.566,-0.083c-32.066,-1.644 -80.506,-10.235 -97.834,-9.785Z" style="fill:#a6a6a6;stroke:#000;stroke-width:3.12px;"/><path d="M282.594,735.667c-3.848,1.995 -9.505,13.06 -8.826,15.258c0.679,2.198 8.654,-0.617 12.9,-2.072c5.631,-1.929 16.502,-6.462 20.889,-9.506c2.237,-1.552 7.812,-8.409 5.436,-8.759c-4.16,-0.613 -23.861,1.69 -30.399,5.079Z" style="fill:#a6a6a6;stroke:#000;stroke-width:3.13px;"/><path d="M459.427,649.141c23.708,-2.633 55.851,-3.31 79.271,-4.37c20.415,-0.924 51.553,-2.87 61.252,-1.987c1.641,0.149 -1.428,6.938 -3.06,7.286c-8.147,1.737 -30.539,2.525 -45.819,3.139c-25.283,1.015 -80.65,1.164 -105.879,2.954c-15.218,1.08 -37.375,7.052 -45.498,7.786c-1.233,0.112 -4.464,-3.078 -3.24,-3.382c9.956,-2.467 41.922,-9.088 62.973,-11.426Z" style="fill:#a6a6a6;stroke:#000;stroke-width:3.13px;"/><path d="M396.221,734.588c-4.948,-4.411 12.618,-3.021 59.092,0.504c15.571,1.18 31.177,-1.717 46.755,-2.609c5.68,-0.325 66.335,-7.543 73.357,-7.158c1.167,0.065 8.116,10.583 6.992,11.11c-16.622,7.797 -45.864,4.869 -68.057,6.043c-21.73,1.149 -56.603,1.728 -78.275,-0.62c-13.339,-1.446 -37.15,-4.85 -39.864,-7.27Z" style="fill:#a6a6a6;stroke:#000;stroke-width:3.13px;"/><path d="M462.182,753.226c-3.339,-4.263 8.361,-1.357 39.248,0.789c10.348,0.719 20.685,0.755 31.012,-0.598c3.765,-0.494 47.439,-7.019 52.104,-6.841c0.776,0.03 1.965,4.456 1.225,5.016c-10.933,8.287 -30.376,6.227 -45.089,8.058c-14.406,1.793 -37.542,1.368 -51.954,-0.337c-8.87,-1.05 -24.714,-3.749 -26.546,-6.087Z" style="fill:#a6a6a6;stroke:#000;stroke-width:3.13px;"/><path d="M454.58,640.129c-2.82,3.407 7.297,3.148 34.112,-0.59c8.985,-1.253 17.973,-1.995 26.979,-1.703c3.284,0.107 41.389,-0.774 45.442,-1.229c0.674,-0.076 1.621,-3.456 0.967,-3.822c-9.67,-5.416 -26.536,-2.535 -39.366,-2.879c-12.562,-0.338 -32.671,1.581 -45.17,3.85c-7.693,1.397 -21.418,4.504 -22.964,6.373Z" style="fill:#a6a6a6;stroke:#000;stroke-width:3.13px;"/><path d="M576.73,740.326c-8.405,3.329 -34.601,21.429 -44.366,22.454c-5.791,0.608 -11.549,-7.611 -14.224,-16.303c-3.058,-9.938 -9.509,-37.667 -4.125,-43.321c5.384,-5.654 27.937,5.455 36.428,9.396c3.46,1.606 18.307,10.744 21.474,16.076c2.487,4.187 7.582,10.601 4.813,11.698Z" style="fill:#fff;stroke:#000;stroke-width:8.33px;"/><path d="M623.873,654.643c-5.414,3.807 -9.931,14.332 -9.05,25.915c0.124,1.634 0.739,5.921 1.289,7.271c2.758,6.774 7.234,7.387 11.155,8.375c3.603,0.907 5.002,1.102 8.586,-0.34c1.815,-0.731 3.458,-2.445 4.491,-5.08c1.379,-3.518 1.815,-9.163 2.017,-13.099c0.228,-4.439 0.203,-8.527 -0.622,-11.851c-0.703,-2.827 -1.962,-5.18 -3.892,-6.979c-1.297,-1.209 -2.675,-1.933 -4.032,-2.842c-1.077,-0.722 -2.169,-1.526 -3.251,-1.991c-2.185,-0.939 -4.392,-0.996 -6.691,0.621Zm4.034,7.452c0.408,0.268 0.925,0.609 1.267,0.839c0.993,0.665 2.043,1.133 2.992,2.017c1.051,0.98 1.463,2.424 1.721,4.077c0.377,2.416 0.306,5.225 0.152,8.231c-0.143,2.774 -0.34,6.592 -1.118,9.447c-0.147,0.54 -0.465,1.262 -0.614,1.585c-1.131,0.37 -1.717,0.156 -3.004,-0.168c-1.817,-0.458 -4.195,-0.298 -5.473,-3.436c-0.358,-0.88 -0.617,-3.696 -0.698,-4.761c-0.392,-5.157 0.499,-10.079 2.167,-13.798c0.74,-1.652 1.605,-3.059 2.608,-4.033Z"/><path d="M624.15,674.274c-0.009,5.084 1.863,8.415 4.672,9.623c0.371,0.159 1.472,0.362 1.847,0.131c1.73,-1.065 2.506,-2.773 3.246,-5.432c0.534,-1.92 0.49,-4.755 0.218,-7.145c-0.329,-2.879 -1.022,-4.19 -2.317,-5.365c-1.577,-1.432 -3.517,-2.123 -4.901,0.273c-0.518,0.895 -0.91,2.001 -1.353,3.018c-0.621,1.424 -1.408,2.929 -1.412,4.897Z" style="fill:#010000;"/><path d="M622.588,674.271c-0.011,5.897 2.359,9.661 5.617,11.061c0.384,0.165 1.296,0.376 2,0.362c0.536,-0.011 0.988,-0.153 1.283,-0.335c2.041,-1.256 3.059,-3.208 3.932,-6.344c0.579,-2.08 0.56,-5.151 0.265,-7.741c-0.39,-3.421 -1.28,-4.948 -2.819,-6.345c-1.341,-1.218 -2.928,-1.908 -4.358,-1.651c-1.037,0.186 -2.092,0.822 -2.946,2.299c-0.545,0.943 -0.966,2.104 -1.433,3.176c-0.697,1.601 -1.537,3.305 -1.541,5.518l-0,0Zm7.473,8.287c-0.179,-0.016 -0.52,-0.053 -0.622,-0.097c-2.362,-1.015 -3.734,-3.91 -3.726,-8.184l-0,0c0.003,-1.724 0.738,-3.029 1.281,-4.276c0.42,-0.963 0.784,-2.013 1.274,-2.86c0.255,-0.442 0.482,-0.732 0.792,-0.788c0.204,-0.036 0.41,0.036 0.618,0.131c0.376,0.17 0.741,0.444 1.087,0.758c1.052,0.955 1.549,2.048 1.815,4.386c0.25,2.191 0.32,4.79 -0.17,6.549c-0.577,2.071 -1.085,3.494 -2.349,4.381Z"/><path d="M600.873,649.569c-2.619,7.255 -4.554,15.325 -6.655,23.097c-2.749,10.174 -7.52,20.956 -8.361,32.626c-0.351,4.868 -1.728,15.562 0.413,19.602c3.628,6.843 8.586,7.973 12.894,12.487c2.821,2.957 5.2,6.099 8.393,6.099" style="fill:none;stroke:#000;stroke-width:8.33px;"/><path d="M416.85,646.831c5.668,-0 10.814,-4.123 16.222,-7.07c3.957,-2.157 8.511,-1.894 12.333,-4.73c4.885,-3.625 11.02,-7.629 16.324,-7.629" style="fill:none;stroke:#000;stroke-width:8.33px;"/><path d="M367.314,733.006c10.271,7.048 20.732,7.551 31.345,10.061c7.765,1.837 15.944,7.875 23.651,8.572c9.853,0.89 22.072,2.792 31.683,9.388" style="fill:none;stroke:#000;stroke-width:8.33px;"/><path d="M466.105,764.997c4.489,3.081 9.32,1.96 14.144,2.098c3.529,0.101 7.087,2.826 10.634,2.208c4.534,-0.79 10.126,-1.26 14.327,1.622" style="fill:none;stroke:#000;stroke-width:8.33px;"/><path d="M606.418,692.698c0,7.493 0.202,14.627 2.355,21.076c0.205,0.614 0.999,4.489 1.516,4.489" style="fill:none;stroke:#000;stroke-width:8.33px;"/><g transform="matrix(1.12738,0,0,1.25145,-2987.86,-5108.38)"><g transform="matrix(0.996456,0,0,1,9.37563,0)"><text x="2645.8px" y="4801.06px" style="font-family:'ProximaNova-Bold', 'Proxima Nova';font-weight:700;font-size:67.782px;fill:#ea0f10;">R<tspan x="2687.35px " y="4801.06px ">e</tspan>d:</text></g><g transform="matrix(0.996456,0,0,1,9.91628,0)"><text x="2798.37px" y="4801.06px" style="font-family:'ProximaNova-Bold', 'Proxima Nova';font-weight:700;font-size:67.782px;fill:#228b22;">Green:</text></g><g transform="matrix(0.996456,0,0,1,10.6994,0)"><text x="3019.37px" y="4801.06px" style="font-family:'ProximaNova-Bold', 'Proxima Nova';font-weight:700;font-size:67.782px;fill:#0000cd;">Blue:</text></g><g transform="matrix(0.996456,0,0,1,11.3109,0)"><text x="3191.94px" y="4801.06px" style="font-family:'ProximaNova-Bold', 'Proxima Nova';font-weight:700;font-size:67.782px;fill:#818181;">UV1:UV2</text></g><g transform="matrix(0.996456,0,0,1,10.3959,0)"><text x="2933.73px" y="4868.85px" style="font-family:'ProximaNova-Bold', 'Proxima Nova';font-weight:700;font-size:67.782px;fill:#ea0f10;">2:</text></g><g transform="matrix(0.996456,0,0,1,10.5996,0)"><text x="2991.21px" y="4868.85px" style="font-family:'ProximaNova-Bold', 'Proxima Nova';font-weight:700;font-size:67.782px;fill:#228b22;">2:</text></g><g transform="matrix(0.996456,0,0,1,10.8033,0)"><text x="3048.69px" y="4868.85px" style="font-family:'ProximaNova-Bold', 'Proxima Nova';font-weight:700;font-size:67.782px;fill:#0000cd;">1:</text></g><g transform="matrix(0.996456,0,0,1,10.9617,0)"><text x="3093.4px" y="4868.85px" style="font-family:'ProximaNova-Bold', 'Proxima Nova';font-weight:700;font-size:67.782px;fill:#818181;">1:0</text></g></g><g transform="matrix(1.12738,0,0,1.25145,-2987.86,-5562.65)"><g transform="matrix(0.996456,0,0,1,9.37563,0)"><text x="2645.8px" y="4801.06px" style="font-family:'ProximaNova-Bold', 'Proxima Nova';font-weight:700;font-size:67.782px;fill:#ea0f10;">R<tspan x="2687.35px " y="4801.06px ">e</tspan>d:</text></g><g transform="matrix(0.996456,0,0,1,9.91628,0)"><text x="2798.37px" y="4801.06px" style="font-family:'ProximaNova-Bold', 'Proxima Nova';font-weight:700;font-size:67.782px;fill:#228b22;">Green:</text></g><g transform="matrix(0.996456,0,0,1,10.6994,0)"><text x="3019.37px" y="4801.06px" style="font-family:'ProximaNova-Bold', 'Proxima Nova';font-weight:700;font-size:67.782px;fill:#0000cd;">Blue:</text></g><g transform="matrix(0.996456,0,0,1,11.3109,0)"><text x="3191.94px" y="4801.06px" style="font-family:'ProximaNova-Bold', 'Proxima Nova';font-weight:700;font-size:67.782px;fill:#818181;">UV1:UV2</text></g><g transform="matrix(0.996456,0,0,1,10.3959,0)"><text x="2933.73px" y="4868.85px" style="font-family:'ProximaNova-Bold', 'Proxima Nova';font-weight:700;font-size:67.782px;fill:#ea0f10;">0:</text></g><g transform="matrix(0.996456,0,0,1,10.6044,0)"><text x="2992.56px" y="4868.85px" style="font-family:'ProximaNova-Bold', 'Proxima Nova';font-weight:700;font-size:67.782px;fill:#228b22;">2:</text></g><g transform="matrix(0.996456,0,0,1,10.8081,0)"><text x="3050.04px" y="4868.85px" style="font-family:'ProximaNova-Bold', 'Proxima Nova';font-weight:700;font-size:67.782px;fill:#0000cd;">1:</text></g><g transform="matrix(0.996456,0,0,1,10.9665,0)"><text x="3094.75px" y="4868.85px" style="font-family:'ProximaNova-Bold', 'Proxima Nova';font-weight:700;font-size:67.782px;fill:#818181;">2:1</text></g></g></svg>