<?xml version="1.0" encoding="UTF-8" standalone="no"?><!DOCTYPE svg PUBLIC "-//W3C//DTD SVG 1.1//EN" "http://www.w3.org/Graphics/SVG/1.1/DTD/svg11.dtd"><svg width="100%" height="100%" viewBox="0 0 1352 853" version="1.1" xmlns="http://www.w3.org/2000/svg" xmlns:xlink="http://www.w3.org/1999/xlink" xml:space="preserve" xmlns:serif="http://www.serif.com/" style="fill-rule:evenodd;clip-rule:evenodd;stroke-linejoin:round;stroke-miterlimit:1.5;"><g><path d="M935.82,272.914c-0,57.2 46.439,103.639 103.639,103.639c57.199,0 103.638,-46.439 103.638,-103.639c0,-57.199 -46.439,-103.638 -103.638,-103.638c-57.2,-0 -103.639,46.439 -103.639,103.638Z" style="fill:#f0f;"/><path d="M1143.1,749.157c0,-57.199 -46.439,-103.638 -103.638,-103.638c-57.2,-0 -103.639,46.439 -103.639,103.638c-0,57.2 46.439,103.639 103.639,103.639c57.199,0 103.638,-46.439 103.638,-103.639Z" style="fill:#1200ff;"/><g><path d="M676.662,511.038c-4.746,100.491 -109.251,212.761 -224.4,253.407" style="fill:none;stroke:#000;stroke-width:10.08px;"/><path d="M433.217,764.445c-0,-10.511 8.533,-19.045 19.045,-19.045c10.511,0 19.044,8.534 19.044,19.045c0,10.511 -8.533,19.045 -19.044,19.045c-10.512,-0 -19.045,-8.534 -19.045,-19.045Z"/></g><g><path d="M676.662,511.038c4.746,100.491 109.251,212.761 224.4,253.407" style="fill:none;stroke:#000;stroke-width:10.08px;"/><path d="M920.107,764.445c-0,-10.511 -8.534,-19.045 -19.045,-19.045c-10.511,0 -19.045,8.534 -19.045,19.045c0,10.511 8.534,19.045 19.045,19.045c10.511,-0 19.045,-8.534 19.045,-19.045Z"/></g><g><path d="M676.662,511.038c4.746,-100.491 109.251,-212.761 224.4,-253.407" style="fill:none;stroke:#000;stroke-width:10.08px;"/><path d="M920.107,257.631c-0,10.511 -8.534,19.045 -19.045,19.045c-10.511,0 -19.045,-8.534 -19.045,-19.045c0,-10.511 8.534,-19.044 19.045,-19.044c10.511,-0 19.045,8.533 19.045,19.044Z"/></g><g><path d="M676.662,511.038c-4.746,-100.491 -109.251,-212.761 -224.4,-253.407" style="fill:none;stroke:#000;stroke-width:10.08px;"/><path d="M433.217,257.631c-0,10.511 8.533,19.045 19.045,19.045c10.511,0 19.044,-8.534 19.044,-19.045c0,-10.511 -8.533,-19.044 -19.044,-19.044c-10.512,-0 -19.045,8.533 -19.045,19.044Z"/></g><path d="M1342.23,272.914l-155.237,0" style="fill:none;stroke:#f0f;stroke-width:18.18px;"/><path d="M1212.9,272.914c0,14.3 -11.61,25.91 -25.909,25.91c-14.3,-0 -25.91,-11.61 -25.91,-25.91c-0,-14.3 11.61,-25.909 25.91,-25.909c14.299,-0 25.909,11.609 25.909,25.909Z" style="fill:#f0f;"/><path d="M1342.23,749.157l-155.237,0" style="fill:none;stroke:#1200ff;stroke-width:18.18px;"/><path d="M1212.9,749.157c0,14.3 -11.61,25.91 -25.909,25.91c-14.3,0 -25.91,-11.61 -25.91,-25.91c-0,-14.3 11.61,-25.909 25.91,-25.909c14.299,-0 25.909,11.609 25.909,25.909Z" style="fill:#1200ff;"/><path d="M9.089,749.157l155.238,0" style="fill:none;stroke:#1dac1d;stroke-width:18.18px;"/><path d="M138.417,749.157c-0,-14.3 11.61,-25.909 25.91,-25.909c14.3,-0 25.909,11.609 25.909,25.909c0,14.3 -11.609,25.91 -25.909,25.91c-14.3,0 -25.91,-11.61 -25.91,-25.91Z" style="fill:#1dac1d;"/><path d="M9.089,272.914l155.238,0" style="fill:none;stroke:#800080;stroke-width:18.18px;"/><path d="M138.417,272.914c-0,-14.3 11.61,-25.909 25.91,-25.909c14.3,-0 25.909,11.609 25.909,25.909c0,14.3 -11.609,25.91 -25.909,25.91c-14.3,-0 -25.91,-11.61 -25.91,-25.91Z" style="fill:#800080;"/><path d="M419.334,749.157c-0,-57.199 -46.439,-103.638 -103.639,-103.638c-57.2,-0 -103.639,46.439 -103.639,103.638c0,57.2 46.439,103.639 103.639,103.639c57.2,0 103.639,-46.439 103.639,-103.639Z" style="fill:#1dac1d;"/><path d="M779.504,511.038c-0,-56.76 -46.082,-102.842 -102.842,-102.842c-56.76,0 -102.842,46.082 -102.842,102.842c-0,56.76 46.082,102.842 102.842,102.842c56.76,-0 102.842,-46.082 102.842,-102.842Z"/><path d="M207.669,272.914c-0,57.2 46.439,103.639 103.639,103.639c57.199,0 103.638,-46.439 103.638,-103.639c0,-57.199 -46.439,-103.638 -103.638,-103.638c-57.2,-0 -103.639,46.439 -103.639,103.638Z" style="fill:#800080;"/><path d="M306.92,272.914c-34.967,55.853 -56.566,212.137 -22.328,342.799" style="fill:none;stroke:#800080;stroke-width:13.44px;"/><path d="M316.692,609.713l-64.2,12" style="fill:none;stroke:#800080;stroke-width:13.44px;"/><path d="M326.463,796.256c34.967,-64.185 56.567,-243.783 22.328,-393.936" style="fill:none;stroke:#1dac1d;stroke-width:13.44px;"/><path d="M316.692,408.362l64.199,-12.083" style="fill:none;stroke:#1dac1d;stroke-width:13.44px;"/><path d="M1027.87,272.914c-34.967,55.853 -56.566,212.137 -22.328,342.799" style="fill:none;stroke:#f0f;stroke-width:13.44px;"/><path d="M1037.65,609.713l-64.2,12" style="fill:none;stroke:#f0f;stroke-width:13.44px;"/><path d="M1039.46,199.888c-50.583,116.974 -124.712,163.54 -254.843,234.072" style="fill:none;stroke:#f0f;stroke-width:13.44px;"/><path d="M764.23,402.442l40.771,63.036" style="fill:none;stroke:#f0f;stroke-width:13.44px;"/><path d="M1021.67,822.189c-46.744,-110.772 -115.246,-154.869 -235.5,-221.66" style="fill:none;stroke:#1200ff;stroke-width:13.44px;"/><path d="M765.321,630.365l41.699,-59.673" style="fill:none;stroke:#1200ff;stroke-width:13.44px;"/><path d="M323.217,822.189c47.551,-117.422 117.237,-164.167 239.571,-234.969" style="fill:none;stroke:#1dac1d;stroke-width:13.44px;"/><path d="M580.414,620.91l-39.994,-62.639" style="fill:none;stroke:#1dac1d;stroke-width:13.44px;"/><path d="M326.441,199.888c48.364,117.908 119.24,164.846 243.663,235.941" style="fill:none;stroke:#800080;stroke-width:13.44px;"/><path d="M590.23,403.079l-45.074,60.678" style="fill:none;stroke:#800080;stroke-width:13.44px;"/><path d="M1047.42,796.256c34.967,-64.185 56.567,-243.783 22.328,-393.936" style="fill:none;stroke:#1200ff;stroke-width:13.44px;"/><path d="M1037.65,408.362l64.199,-12.083" style="fill:none;stroke:#1200ff;stroke-width:13.44px;"/><text x="585.921px" y="539.296px" style="font-family:'HelveticaNeue-Bold', 'Helvetica Neue';font-weight:700;font-size:80.623px;fill:#fff;">Dm9</text><text x="987.739px" y="301.697px" style="font-family:'HelveticaNeue-Bold', 'Helvetica Neue';font-weight:700;font-size:80.623px;fill:#fff;">R7</text><text x="258.58px" y="301.697px" style="font-family:'HelveticaNeue-Bold', 'Helvetica Neue';font-weight:700;font-size:80.623px;fill:#fff;">R7</text><text x="261.96px" y="777.416px" style="font-family:'HelveticaNeue-Bold', 'Helvetica Neue';font-weight:700;font-size:80.623px;fill:#fff;">R8</text><text x="985.723px" y="777.416px" style="font-family:'HelveticaNeue-Bold', 'Helvetica Neue';font-weight:700;font-size:80.623px;fill:#fff;">R8</text></g><g transform="matrix(1.23769,0,0,1.23769,196.475,-1803.68)"><text x="807.298px" y="1853.82px" style="font-family:'HelveticaNeue-Medium', 'Helvetica Neue', sans-serif;font-weight:500;font-size:64.708px;stroke:#000;stroke-width:0.44px;stroke-miterlimit:1.41421;">PR</text><text x="776.174px" y="1920.4px" style="font-family:'HelveticaNeue-Medium', 'Helvetica Neue', sans-serif;font-weight:500;font-size:64.708px;stroke:#000;stroke-width:0.44px;stroke-miterlimit:1.41421;">input</text></g><g transform="matrix(1.23769,0,0,1.23769,-956.621,-1803.68)"><text x="807.298px" y="1853.82px" style="font-family:'HelveticaNeue-Medium', 'Helvetica Neue', sans-serif;font-weight:500;font-size:64.708px;stroke:#000;stroke-width:0.44px;stroke-miterlimit:1.41421;">PR</text><text x="776.174px" y="1920.4px" style="font-family:'HelveticaNeue-Medium', 'Helvetica Neue', sans-serif;font-weight:500;font-size:64.708px;stroke:#000;stroke-width:0.44px;stroke-miterlimit:1.41421;">input</text></g><g transform="matrix(1.23769,0,0,1.23769,-741.781,-2236.99)"><text x="807.298px" y="1853.82px" style="font-family:'HelveticaNeue-Medium', 'Helvetica Neue', sans-serif;font-weight:500;font-size:64.708px;stroke:#000;stroke-width:0.44px;stroke-miterlimit:1.41421;">PR</text><text x="778.536px" y="1920.4px" style="font-family:'HelveticaNeue-Medium', 'Helvetica Neue', sans-serif;font-weight:500;font-size:64.708px;stroke:#000;stroke-width:0.44px;stroke-miterlimit:1.41421;">axon</text></g><g transform="matrix(1.23769,0,0,1.23769,-21.6358,-2236.99)"><text x="807.298px" y="1853.82px" style="font-family:'HelveticaNeue-Medium', 'Helvetica Neue', sans-serif;font-weight:500;font-size:64.708px;stroke:#000;stroke-width:0.44px;stroke-miterlimit:1.41421;">PR</text><text x="778.536px" y="1920.4px" style="font-family:'HelveticaNeue-Medium', 'Helvetica Neue', sans-serif;font-weight:500;font-size:64.708px;stroke:#000;stroke-width:0.44px;stroke-miterlimit:1.41421;">axon</text></g><g transform="matrix(1.23769,0,0,1.23769,-374.623,-1528.35)"><text x="774.329px" y="1853.82px" style="font-family:'HelveticaNeue-Medium', 'Helvetica Neue', sans-serif;font-weight:500;font-size:64.708px;stroke:#000;stroke-width:0.44px;stroke-miterlimit:1.41421;">inter<tspan x="903.811px " y="1853.82px ">-</tspan></text><text x="747.961px" y="1920.4px" style="font-family:'HelveticaNeue-Medium', 'Helvetica Neue', sans-serif;font-weight:500;font-size:64.708px;stroke:#000;stroke-width:0.44px;stroke-miterlimit:1.41421;">neur<tspan x="879.836px 918.208px " y="1920.4px 1920.4px ">on</tspan></text></g></svg>